<?xml version="1.0" encoding="utf-8"?>
<svg xmlns="http://www.w3.org/2000/svg" xmlns:xlink="http://www.w3.org/1999/xlink" width="600" height="400" viewBox="0 0 2400 1600">
<defs>
  <clipPath id="clip100">
    <rect x="0" y="0" width="2400" height="1600"/>
  </clipPath>
</defs>
<path clip-path="url(#clip100)" d="M0 1600 L2400 1600 L2400 0 L0 0  Z" fill="#ffffff" fill-rule="evenodd" fill-opacity="1"/>
<defs>
  <clipPath id="clip101">
    <rect x="480" y="0" width="1681" height="1600"/>
  </clipPath>
</defs>
<path clip-path="url(#clip100)" d="M147.108 1486.45 L2352.76 1486.45 L2352.76 47.2441 L147.108 47.2441  Z" fill="#ffffff" fill-rule="evenodd" fill-opacity="1"/>
<defs>
  <clipPath id="clip102">
    <rect x="147" y="47" width="2207" height="1440"/>
  </clipPath>
</defs>
<polyline clip-path="url(#clip102)" style="stroke:#000000; stroke-linecap:round; stroke-linejoin:round; stroke-width:2; stroke-opacity:0.1; fill:none" points="209.532,1486.45 209.532,47.2441 "/>
<polyline clip-path="url(#clip102)" style="stroke:#000000; stroke-linecap:round; stroke-linejoin:round; stroke-width:2; stroke-opacity:0.1; fill:none" points="625.692,1486.45 625.692,47.2441 "/>
<polyline clip-path="url(#clip102)" style="stroke:#000000; stroke-linecap:round; stroke-linejoin:round; stroke-width:2; stroke-opacity:0.1; fill:none" points="1041.85,1486.45 1041.85,47.2441 "/>
<polyline clip-path="url(#clip102)" style="stroke:#000000; stroke-linecap:round; stroke-linejoin:round; stroke-width:2; stroke-opacity:0.1; fill:none" points="1458.01,1486.45 1458.01,47.2441 "/>
<polyline clip-path="url(#clip102)" style="stroke:#000000; stroke-linecap:round; stroke-linejoin:round; stroke-width:2; stroke-opacity:0.1; fill:none" points="1874.17,1486.45 1874.17,47.2441 "/>
<polyline clip-path="url(#clip102)" style="stroke:#000000; stroke-linecap:round; stroke-linejoin:round; stroke-width:2; stroke-opacity:0.1; fill:none" points="2290.33,1486.45 2290.33,47.2441 "/>
<polyline clip-path="url(#clip102)" style="stroke:#000000; stroke-linecap:round; stroke-linejoin:round; stroke-width:2; stroke-opacity:0.1; fill:none" points="147.108,1224.78 2352.76,1224.78 "/>
<polyline clip-path="url(#clip102)" style="stroke:#000000; stroke-linecap:round; stroke-linejoin:round; stroke-width:2; stroke-opacity:0.1; fill:none" points="147.108,845.865 2352.76,845.865 "/>
<polyline clip-path="url(#clip102)" style="stroke:#000000; stroke-linecap:round; stroke-linejoin:round; stroke-width:2; stroke-opacity:0.1; fill:none" points="147.108,466.953 2352.76,466.953 "/>
<polyline clip-path="url(#clip102)" style="stroke:#000000; stroke-linecap:round; stroke-linejoin:round; stroke-width:2; stroke-opacity:0.1; fill:none" points="147.108,88.0404 2352.76,88.0404 "/>
<polyline clip-path="url(#clip100)" style="stroke:#000000; stroke-linecap:round; stroke-linejoin:round; stroke-width:4; stroke-opacity:1; fill:none" points="147.108,1486.45 2352.76,1486.45 "/>
<polyline clip-path="url(#clip100)" style="stroke:#000000; stroke-linecap:round; stroke-linejoin:round; stroke-width:4; stroke-opacity:1; fill:none" points="209.532,1486.45 209.532,1467.55 "/>
<polyline clip-path="url(#clip100)" style="stroke:#000000; stroke-linecap:round; stroke-linejoin:round; stroke-width:4; stroke-opacity:1; fill:none" points="625.692,1486.45 625.692,1467.55 "/>
<polyline clip-path="url(#clip100)" style="stroke:#000000; stroke-linecap:round; stroke-linejoin:round; stroke-width:4; stroke-opacity:1; fill:none" points="1041.85,1486.45 1041.85,1467.55 "/>
<polyline clip-path="url(#clip100)" style="stroke:#000000; stroke-linecap:round; stroke-linejoin:round; stroke-width:4; stroke-opacity:1; fill:none" points="1458.01,1486.45 1458.01,1467.55 "/>
<polyline clip-path="url(#clip100)" style="stroke:#000000; stroke-linecap:round; stroke-linejoin:round; stroke-width:4; stroke-opacity:1; fill:none" points="1874.17,1486.45 1874.17,1467.55 "/>
<polyline clip-path="url(#clip100)" style="stroke:#000000; stroke-linecap:round; stroke-linejoin:round; stroke-width:4; stroke-opacity:1; fill:none" points="2290.33,1486.45 2290.33,1467.55 "/>
<path clip-path="url(#clip100)" d="M209.532 1517.37 Q205.92 1517.37 204.092 1520.93 Q202.286 1524.47 202.286 1531.6 Q202.286 1538.71 204.092 1542.27 Q205.92 1545.82 209.532 1545.82 Q213.166 1545.82 214.971 1542.27 Q216.8 1538.71 216.8 1531.6 Q216.8 1524.47 214.971 1520.93 Q213.166 1517.37 209.532 1517.37 M209.532 1513.66 Q215.342 1513.66 218.397 1518.27 Q221.476 1522.85 221.476 1531.6 Q221.476 1540.33 218.397 1544.94 Q215.342 1549.52 209.532 1549.52 Q203.721 1549.52 200.643 1544.94 Q197.587 1540.33 197.587 1531.6 Q197.587 1522.85 200.643 1518.27 Q203.721 1513.66 209.532 1513.66 Z" fill="#000000" fill-rule="nonzero" fill-opacity="1" /><path clip-path="url(#clip100)" d="M616.074 1544.91 L623.712 1544.91 L623.712 1518.55 L615.402 1520.21 L615.402 1515.95 L623.666 1514.29 L628.342 1514.29 L628.342 1544.91 L635.981 1544.91 L635.981 1548.85 L616.074 1548.85 L616.074 1544.91 Z" fill="#000000" fill-rule="nonzero" fill-opacity="1" /><path clip-path="url(#clip100)" d="M1036.5 1544.91 L1052.82 1544.91 L1052.82 1548.85 L1030.88 1548.85 L1030.88 1544.91 Q1033.54 1542.16 1038.12 1537.53 Q1042.73 1532.88 1043.91 1531.53 Q1046.16 1529.01 1047.04 1527.27 Q1047.94 1525.51 1047.94 1523.82 Q1047.94 1521.07 1046 1519.33 Q1044.07 1517.6 1040.97 1517.6 Q1038.77 1517.6 1036.32 1518.36 Q1033.89 1519.13 1031.11 1520.68 L1031.11 1515.95 Q1033.94 1514.82 1036.39 1514.24 Q1038.84 1513.66 1040.88 1513.66 Q1046.25 1513.66 1049.44 1516.35 Q1052.64 1519.03 1052.64 1523.52 Q1052.64 1525.65 1051.83 1527.57 Q1051.04 1529.47 1048.93 1532.07 Q1048.36 1532.74 1045.25 1535.95 Q1042.15 1539.15 1036.5 1544.91 Z" fill="#000000" fill-rule="nonzero" fill-opacity="1" /><path clip-path="url(#clip100)" d="M1462.26 1530.21 Q1465.62 1530.93 1467.49 1533.2 Q1469.39 1535.47 1469.39 1538.8 Q1469.39 1543.92 1465.87 1546.72 Q1462.35 1549.52 1455.87 1549.52 Q1453.69 1549.52 1451.38 1549.08 Q1449.09 1548.66 1446.63 1547.81 L1446.63 1543.29 Q1448.58 1544.43 1450.89 1545.01 Q1453.21 1545.58 1455.73 1545.58 Q1460.13 1545.58 1462.42 1543.85 Q1464.74 1542.11 1464.74 1538.8 Q1464.74 1535.75 1462.58 1534.03 Q1460.45 1532.3 1456.63 1532.3 L1452.61 1532.3 L1452.61 1528.45 L1456.82 1528.45 Q1460.27 1528.45 1462.1 1527.09 Q1463.93 1525.7 1463.93 1523.11 Q1463.93 1520.45 1462.03 1519.03 Q1460.15 1517.6 1456.63 1517.6 Q1454.71 1517.6 1452.51 1518.01 Q1450.32 1518.43 1447.68 1519.31 L1447.68 1515.14 Q1450.34 1514.4 1452.65 1514.03 Q1454.99 1513.66 1457.05 1513.66 Q1462.38 1513.66 1465.48 1516.09 Q1468.58 1518.5 1468.58 1522.62 Q1468.58 1525.49 1466.94 1527.48 Q1465.29 1529.45 1462.26 1530.21 Z" fill="#000000" fill-rule="nonzero" fill-opacity="1" /><path clip-path="url(#clip100)" d="M1877.18 1518.36 L1865.38 1536.81 L1877.18 1536.81 L1877.18 1518.36 M1875.95 1514.29 L1881.83 1514.29 L1881.83 1536.81 L1886.76 1536.81 L1886.76 1540.7 L1881.83 1540.7 L1881.83 1548.85 L1877.18 1548.85 L1877.18 1540.7 L1861.58 1540.7 L1861.58 1536.19 L1875.95 1514.29 Z" fill="#000000" fill-rule="nonzero" fill-opacity="1" /><path clip-path="url(#clip100)" d="M2280.61 1514.29 L2298.97 1514.29 L2298.97 1518.22 L2284.89 1518.22 L2284.89 1526.7 Q2285.91 1526.35 2286.93 1526.19 Q2287.95 1526 2288.97 1526 Q2294.75 1526 2298.13 1529.17 Q2301.51 1532.34 2301.51 1537.76 Q2301.51 1543.34 2298.04 1546.44 Q2294.57 1549.52 2288.25 1549.52 Q2286.07 1549.52 2283.8 1549.15 Q2281.56 1548.78 2279.15 1548.04 L2279.15 1543.34 Q2281.23 1544.47 2283.46 1545.03 Q2285.68 1545.58 2288.16 1545.58 Q2292.16 1545.58 2294.5 1543.48 Q2296.84 1541.37 2296.84 1537.76 Q2296.84 1534.15 2294.5 1532.04 Q2292.16 1529.94 2288.16 1529.94 Q2286.28 1529.94 2284.41 1530.35 Q2282.55 1530.77 2280.61 1531.65 L2280.61 1514.29 Z" fill="#000000" fill-rule="nonzero" fill-opacity="1" /><polyline clip-path="url(#clip100)" style="stroke:#000000; stroke-linecap:round; stroke-linejoin:round; stroke-width:4; stroke-opacity:1; fill:none" points="147.108,1486.45 147.108,47.2441 "/>
<polyline clip-path="url(#clip100)" style="stroke:#000000; stroke-linecap:round; stroke-linejoin:round; stroke-width:4; stroke-opacity:1; fill:none" points="147.108,1224.78 166.005,1224.78 "/>
<polyline clip-path="url(#clip100)" style="stroke:#000000; stroke-linecap:round; stroke-linejoin:round; stroke-width:4; stroke-opacity:1; fill:none" points="147.108,845.865 166.005,845.865 "/>
<polyline clip-path="url(#clip100)" style="stroke:#000000; stroke-linecap:round; stroke-linejoin:round; stroke-width:4; stroke-opacity:1; fill:none" points="147.108,466.953 166.005,466.953 "/>
<polyline clip-path="url(#clip100)" style="stroke:#000000; stroke-linecap:round; stroke-linejoin:round; stroke-width:4; stroke-opacity:1; fill:none" points="147.108,88.0404 166.005,88.0404 "/>
<path clip-path="url(#clip100)" d="M50.9921 1225.23 L80.6679 1225.23 L80.6679 1229.16 L50.9921 1229.16 L50.9921 1225.23 Z" fill="#000000" fill-rule="nonzero" fill-opacity="1" /><path clip-path="url(#clip100)" d="M94.7882 1238.12 L111.108 1238.12 L111.108 1242.06 L89.1632 1242.06 L89.1632 1238.12 Q91.8252 1235.37 96.4085 1230.74 Q101.015 1226.09 102.196 1224.74 Q104.441 1222.22 105.321 1220.48 Q106.223 1218.72 106.223 1217.03 Q106.223 1214.28 104.279 1212.54 Q102.358 1210.81 99.2558 1210.81 Q97.0567 1210.81 94.603 1211.57 Q92.1725 1212.34 89.3947 1213.89 L89.3947 1209.16 Q92.2188 1208.03 94.6724 1207.45 Q97.1261 1206.87 99.1632 1206.87 Q104.534 1206.87 107.728 1209.56 Q110.922 1212.24 110.922 1216.73 Q110.922 1218.86 110.112 1220.78 Q109.325 1222.68 107.219 1225.27 Q106.64 1225.95 103.538 1229.16 Q100.436 1232.36 94.7882 1238.12 Z" fill="#000000" fill-rule="nonzero" fill-opacity="1" /><path clip-path="url(#clip100)" d="M99.1632 831.664 Q95.5521 831.664 93.7234 835.228 Q91.9178 838.77 91.9178 845.9 Q91.9178 853.006 93.7234 856.571 Q95.5521 860.112 99.1632 860.112 Q102.797 860.112 104.603 856.571 Q106.432 853.006 106.432 845.9 Q106.432 838.77 104.603 835.228 Q102.797 831.664 99.1632 831.664 M99.1632 827.96 Q104.973 827.96 108.029 832.566 Q111.108 837.15 111.108 845.9 Q111.108 854.626 108.029 859.233 Q104.973 863.816 99.1632 863.816 Q93.353 863.816 90.2743 859.233 Q87.2188 854.626 87.2188 845.9 Q87.2188 837.15 90.2743 832.566 Q93.353 827.96 99.1632 827.96 Z" fill="#000000" fill-rule="nonzero" fill-opacity="1" /><path clip-path="url(#clip100)" d="M94.7882 480.297 L111.108 480.297 L111.108 484.233 L89.1632 484.233 L89.1632 480.297 Q91.8252 477.543 96.4085 472.913 Q101.015 468.26 102.196 466.918 Q104.441 464.395 105.321 462.659 Q106.223 460.899 106.223 459.21 Q106.223 456.455 104.279 454.719 Q102.358 452.983 99.2558 452.983 Q97.0567 452.983 94.603 453.747 Q92.1725 454.511 89.3947 456.061 L89.3947 451.339 Q92.2188 450.205 94.6724 449.626 Q97.1261 449.048 99.1632 449.048 Q104.534 449.048 107.728 451.733 Q110.922 454.418 110.922 458.909 Q110.922 461.038 110.112 462.96 Q109.325 464.858 107.219 467.45 Q106.64 468.122 103.538 471.339 Q100.436 474.534 94.7882 480.297 Z" fill="#000000" fill-rule="nonzero" fill-opacity="1" /><path clip-path="url(#clip100)" d="M101.524 74.8344 L89.7188 93.2834 L101.524 93.2834 L101.524 74.8344 M100.297 70.7604 L106.177 70.7604 L106.177 93.2834 L111.108 93.2834 L111.108 97.1723 L106.177 97.1723 L106.177 105.32 L101.524 105.32 L101.524 97.1723 L85.9225 97.1723 L85.9225 92.6584 L100.297 70.7604 Z" fill="#000000" fill-rule="nonzero" fill-opacity="1" /><polyline clip-path="url(#clip102)" style="stroke:#009af9; stroke-linecap:round; stroke-linejoin:round; stroke-width:4; stroke-opacity:1; fill:none" points="209.532,88.0404 211.614,88.0361 213.697,88.0253 215.78,88.011 217.863,87.9961 219.946,87.9835 222.029,87.9763 224.112,87.9773 226.195,87.9895 228.278,88.0158 230.36,88.0591 232.443,88.1223 234.526,88.2082 236.609,88.3198 238.692,88.4597 240.775,88.631 242.858,88.8362 244.941,89.0781 247.023,89.3596 249.106,89.6832 251.189,90.0516 253.272,90.4674 255.355,90.9333 257.438,91.4518 259.521,92.0253 261.604,92.6564 263.687,93.3475 265.769,94.101 267.852,94.9191 269.935,95.8043 272.018,96.7587 274.101,97.7846 276.184,98.884 278.267,100.059 280.35,101.312 282.432,102.645 284.515,104.059 286.598,105.556 288.681,107.139 290.764,108.81 292.847,110.568 294.93,112.418 297.013,114.359 299.096,116.394 301.178,118.523 303.261,120.749 305.344,123.073 307.427,125.495 309.51,128.018 311.593,130.642 313.676,133.367 315.759,136.196 317.841,139.129 319.924,142.167 322.007,145.31 324.09,148.56 326.173,151.917 328.256,155.381 330.339,158.953 332.422,162.633 334.505,166.422 336.587,170.32 338.67,174.327 340.753,178.443 342.836,182.668 344.919,187.002 347.002,191.446 349.085,195.998 351.168,200.658 353.25,205.427 355.333,210.303 357.416,215.286 359.499,220.377 361.582,225.573 363.665,230.874 365.748,236.28 367.831,241.79 369.914,247.402 371.996,253.116 374.079,258.93 376.162,264.844 378.245,270.857 380.328,276.966 382.411,283.171 384.494,289.471 386.577,295.863 388.66,302.346 390.742,308.919 392.825,315.58 394.908,322.328 396.991,329.159 399.074,336.074 401.157,343.069 403.24,350.143 405.323,357.294 407.405,364.519 409.488,371.817 411.571,379.186 413.654,386.623 415.737,394.126 417.82,401.692 419.903,409.32 421.986,417.006 424.069,424.749 426.151,432.546 428.234,440.394 430.317,448.291 432.4,456.234 434.483,464.221 436.566,472.249 438.649,480.315 440.732,488.417 442.814,496.551 444.897,504.715 446.98,512.907 449.063,521.122 451.146,529.359 453.229,537.615 455.312,545.886 457.395,554.17 459.478,562.464 461.56,570.765 463.643,579.07 465.726,587.375 467.809,595.679 469.892,603.978 471.975,612.269 474.058,620.549 476.141,628.815 478.223,637.065 480.306,645.294 482.389,653.501 484.472,661.683 486.555,669.835 488.638,677.957 490.721,686.043 492.804,694.093 494.887,702.102 496.969,710.068 499.052,717.989 501.135,725.86 503.218,733.68 505.301,741.446 507.384,749.155 509.467,756.804 511.55,764.391 513.633,771.913 515.715,779.367 517.798,786.751 519.881,794.062 521.964,801.298 524.047,808.456 526.13,815.535 528.213,822.53 530.296,829.442 532.378,836.266 534.461,843 536.544,849.644 538.627,856.193 540.71,862.648 542.793,869.004 544.876,875.261 546.959,881.417 549.042,887.469 551.124,893.416 553.207,899.256 555.29,904.988 557.373,910.609 559.456,916.119 561.539,921.516 563.622,926.798 565.705,931.964 567.787,937.013 569.87,941.944 571.953,946.755 574.036,951.446 576.119,956.015 578.202,960.461 580.285,964.784 582.368,968.983 584.451,973.057 586.533,977.005 588.616,980.827 590.699,984.522 592.782,988.091 594.865,991.532 596.948,994.845 599.031,998.03 601.114,1001.09 603.196,1004.02 605.279,1006.82 607.362,1009.49 609.445,1012.04 611.528,1014.45 613.611,1016.74 615.694,1018.91 617.777,1020.94 619.86,1022.85 621.942,1024.64 624.025,1026.3 626.108,1027.84 628.191,1029.25 630.274,1030.54 632.357,1031.71 634.44,1032.76 636.523,1033.69 638.605,1034.51 640.688,1035.2 642.771,1035.78 644.854,1036.25 646.937,1036.61 649.02,1036.85 651.103,1036.98 653.186,1037.01 655.269,1036.93 657.351,1036.74 659.434,1036.46 661.517,1036.07 663.6,1035.58 665.683,1035 667.766,1034.32 669.849,1033.55 671.932,1032.69 674.015,1031.74 676.097,1030.7 678.18,1029.58 680.263,1028.38 682.346,1027.1 684.429,1025.74 686.512,1024.31 688.595,1022.8 690.678,1021.23 692.76,1019.59 694.843,1017.89 696.926,1016.12 699.009,1014.3 701.092,1012.42 703.175,1010.48 705.258,1008.5 707.341,1006.47 709.424,1004.4 711.506,1002.28 713.589,1000.12 715.672,997.928 717.755,995.702 719.838,993.445 721.921,991.161 724.004,988.853 726.087,986.523 728.169,984.174 730.252,981.81 732.335,979.433 734.418,977.046 736.501,974.652 738.584,972.255 740.667,969.857 742.75,967.461 744.833,965.07 746.915,962.687 748.998,960.315 751.081,957.957 753.164,955.616 755.247,953.294 757.33,950.995 759.413,948.721 761.496,946.476 763.578,944.262 765.661,942.081 767.744,939.937 769.827,937.832 771.91,935.769 773.993,933.751 776.076,931.78 778.159,929.859 780.242,927.99 782.324,926.176 784.407,924.42 786.49,922.723 788.573,921.088 790.656,919.518 792.739,918.015 794.822,916.581 796.905,915.218 798.988,913.929 801.07,912.715 803.153,911.579 805.236,910.522 807.319,909.547 809.402,908.655 811.485,907.848 813.568,907.128 815.651,906.497 817.733,905.957 819.816,905.508 821.899,905.152 823.982,904.891 826.065,904.727 828.148,904.66 830.231,904.691 832.314,904.823 834.397,905.056 836.479,905.391 838.562,905.828 840.645,906.37 842.728,907.017 844.811,907.769 846.894,908.628 848.977,909.593 851.06,910.666 853.142,911.846 855.225,913.135 857.308,914.533 859.391,916.039 861.474,917.655 863.557,919.379 865.64,921.213 867.723,923.156 869.806,925.207 871.888,927.368 873.971,929.637 876.054,932.014 878.137,934.499 880.22,937.091 882.303,939.79 884.386,942.595 886.469,945.505 888.551,948.52 890.634,951.639 892.717,954.86 894.8,958.183 896.883,961.607 898.966,965.13 901.049,968.752 903.132,972.471 905.215,976.286 907.297,980.195 909.38,984.197 911.463,988.29 913.546,992.473 915.629,996.745 917.712,1001.1 919.795,1005.54 921.878,1010.07 923.961,1014.68 926.043,1019.36 928.126,1024.12 930.209,1028.96 932.292,1033.87 934.375,1038.85 936.458,1043.9 938.541,1049.01 940.624,1054.19 942.706,1059.43 944.789,1064.73 946.872,1070.08 948.955,1075.49 951.038,1080.96 953.121,1086.47 955.204,1092.02 957.287,1097.62 959.37,1103.26 961.452,1108.94 963.535,1114.66 965.618,1120.41 967.701,1126.19 969.784,1131.99 971.867,1137.83 973.95,1143.68 976.033,1149.55 978.115,1155.44 980.198,1161.34 982.281,1167.25 984.364,1173.16 986.447,1179.08 988.53,1185.01 990.613,1190.93 992.696,1196.84 994.779,1202.75 996.861,1208.65 998.944,1214.53 1001.03,1220.4 1003.11,1226.25 1005.19,1232.08 1007.28,1237.88 1009.36,1243.65 1011.44,1249.39 1013.52,1255.1 1015.61,1260.76 1017.69,1266.39 1019.77,1271.98 1021.86,1277.52 1023.94,1283.01 1026.02,1288.45 1028.1,1293.84 1030.19,1299.17 1032.27,1304.44 1034.35,1309.65 1036.44,1314.79 1038.52,1319.87 1040.6,1324.88 1042.68,1329.81 1044.77,1334.67 1046.85,1339.45 1048.93,1344.15 1051.02,1348.77 1053.1,1353.3 1055.18,1357.75 1057.27,1362.11 1059.35,1366.38 1061.43,1370.55 1063.51,1374.63 1065.6,1378.61 1067.68,1382.49 1069.76,1386.27 1071.85,1389.95 1073.93,1393.52 1076.01,1396.99 1078.09,1400.34 1080.18,1403.59 1082.26,1406.73 1084.34,1409.75 1086.43,1412.66 1088.51,1415.45 1090.59,1418.12 1092.67,1420.68 1094.76,1423.12 1096.84,1425.43 1098.92,1427.63 1101.01,1429.7 1103.09,1431.65 1105.17,1433.47 1107.25,1435.17 1109.34,1436.75 1111.42,1438.2 1113.5,1439.52 1115.59,1440.71 1117.67,1441.78 1119.75,1442.72 1121.83,1443.53 1123.92,1444.22 1126,1444.77 1128.08,1445.2 1130.17,1445.5 1132.25,1445.67 1134.33,1445.72 1136.41,1445.63 1138.5,1445.42 1140.58,1445.09 1142.66,1444.62 1144.75,1444.03 1146.83,1443.32 1148.91,1442.48 1150.99,1441.52 1153.08,1440.44 1155.16,1439.24 1157.24,1437.91 1159.33,1436.47 1161.41,1434.91 1163.49,1433.23 1165.57,1431.44 1167.66,1429.53 1169.74,1427.51 1171.82,1425.38 1173.91,1423.14 1175.99,1420.79 1178.07,1418.33 1180.16,1415.77 1182.24,1413.11 1184.32,1410.35 1186.4,1407.49 1188.49,1404.53 1190.57,1401.47 1192.65,1398.32 1194.74,1395.09 1196.82,1391.76 1198.9,1388.35 1200.98,1384.85 1203.07,1381.27 1205.15,1377.61 1207.23,1373.88 1209.32,1370.07 1211.4,1366.18 1213.48,1362.23 1215.56,1358.22 1217.65,1354.13 1219.73,1349.99 1221.81,1345.79 1223.9,1341.53 1225.98,1337.22 1228.06,1332.85 1230.14,1328.44 1232.23,1323.99 1234.31,1319.49 1236.39,1314.95 1238.48,1310.38 1240.56,1305.77 1242.64,1301.14 1244.72,1296.47 1246.81,1291.78 1248.89,1287.07 1250.97,1282.34 1253.06,1277.59 1255.14,1272.83 1257.22,1268.06 1259.3,1263.29 1261.39,1258.51 1263.47,1253.73 1265.55,1248.95 1267.64,1244.17 1269.72,1239.4 1271.8,1234.65 1273.88,1229.91 1275.97,1225.18 1278.05,1220.47 1280.13,1215.79 1282.22,1211.13 1284.3,1206.5 1286.38,1201.9 1288.47,1197.33 1290.55,1192.8 1292.63,1188.31 1294.71,1183.86 1296.8,1179.46 1298.88,1175.1 1300.96,1170.79 1303.05,1166.54 1305.13,1162.34 1307.21,1158.19 1309.29,1154.11 1311.38,1150.08 1313.46,1146.13 1315.54,1142.23 1317.63,1138.41 1319.71,1134.66 1321.79,1130.98 1323.87,1127.38 1325.96,1123.85 1328.04,1120.41 1330.12,1117.04 1332.21,1113.76 1334.29,1110.57 1336.37,1107.46 1338.45,1104.44 1340.54,1101.5 1342.62,1098.67 1344.7,1095.92 1346.79,1093.27 1348.87,1090.71 1350.95,1088.26 1353.03,1085.9 1355.12,1083.64 1357.2,1081.48 1359.28,1079.42 1361.37,1077.47 1363.45,1075.62 1365.53,1073.88 1367.61,1072.24 1369.7,1070.7 1371.78,1069.28 1373.86,1067.96 1375.95,1066.75 1378.03,1065.65 1380.11,1064.65 1382.19,1063.77 1384.28,1062.99 1386.36,1062.32 1388.44,1061.77 1390.53,1061.32 1392.61,1060.98 1394.69,1060.75 1396.77,1060.62 1398.86,1060.61 1400.94,1060.7 1403.02,1060.91 1405.11,1061.21 1407.19,1061.63 1409.27,1062.15 1411.36,1062.77 1413.44,1063.5 1415.52,1064.33 1417.6,1065.26 1419.69,1066.29 1421.77,1067.43 1423.85,1068.66 1425.94,1069.98 1428.02,1071.41 1430.1,1072.93 1432.18,1074.54 1434.27,1076.24 1436.35,1078.04 1438.43,1079.92 1440.52,1081.89 1442.6,1083.94 1444.68,1086.07 1446.76,1088.29 1448.85,1090.59 1450.93,1092.96 1453.01,1095.41 1455.1,1097.93 1457.18,1100.52 1459.26,1103.18 1461.34,1105.91 1463.43,1108.7 1465.51,1111.55 1467.59,1114.46 1469.68,1117.43 1471.76,1120.45 1473.84,1123.53 1475.92,1126.65 1478.01,1129.82 1480.09,1133.03 1482.17,1136.29 1484.26,1139.58 1486.34,1142.91 1488.42,1146.28 1490.5,1149.67 1492.59,1153.09 1494.67,1156.54 1496.75,1160 1498.84,1163.49 1500.92,1166.99 1503,1170.51 1505.08,1174.04 1507.17,1177.57 1509.25,1181.11 1511.33,1184.65 1513.42,1188.19 1515.5,1191.72 1517.58,1195.24 1519.67,1198.76 1521.75,1202.26 1523.83,1205.75 1525.91,1209.21 1528,1212.66 1530.08,1216.08 1532.16,1219.47 1534.25,1222.83 1536.33,1226.16 1538.41,1229.44 1540.49,1232.69 1542.58,1235.9 1544.66,1239.06 1546.74,1242.17 1548.83,1245.24 1550.91,1248.24 1552.99,1251.2 1555.07,1254.09 1557.16,1256.92 1559.24,1259.68 1561.32,1262.38 1563.41,1265.01 1565.49,1267.57 1567.57,1270.05 1569.65,1272.45 1571.74,1274.78 1573.82,1277.02 1575.9,1279.18 1577.99,1281.25 1580.07,1283.23 1582.15,1285.12 1584.23,1286.92 1586.32,1288.62 1588.4,1290.23 1590.48,1291.73 1592.57,1293.14 1594.65,1294.44 1596.73,1295.63 1598.81,1296.72 1600.9,1297.71 1602.98,1298.58 1605.06,1299.34 1607.15,1299.99 1609.23,1300.52 1611.31,1300.94 1613.39,1301.24 1615.48,1301.42 1617.56,1301.48 1619.64,1301.43 1621.73,1301.25 1623.81,1300.95 1625.89,1300.52 1627.98,1299.97 1630.06,1299.3 1632.14,1298.5 1634.22,1297.58 1636.31,1296.52 1638.39,1295.35 1640.47,1294.04 1642.56,1292.61 1644.64,1291.04 1646.72,1289.36 1648.8,1287.54 1650.89,1285.59 1652.97,1283.52 1655.05,1281.32 1657.14,1278.99 1659.22,1276.53 1661.3,1273.95 1663.38,1271.24 1665.47,1268.4 1667.55,1265.44 1669.63,1262.35 1671.72,1259.14 1673.8,1255.81 1675.88,1252.35 1677.96,1248.77 1680.05,1245.07 1682.13,1241.26 1684.21,1237.32 1686.3,1233.27 1688.38,1229.1 1690.46,1224.82 1692.54,1220.42 1694.63,1215.92 1696.71,1211.3 1698.79,1206.58 1700.88,1201.75 1702.96,1196.81 1705.04,1191.77 1707.12,1186.64 1709.21,1181.4 1711.29,1176.06 1713.37,1170.63 1715.46,1165.11 1717.54,1159.49 1719.62,1153.79 1721.7,1148 1723.79,1142.13 1725.87,1136.17 1727.95,1130.13 1730.04,1124.02 1732.12,1117.83 1734.2,1111.57 1736.28,1105.25 1738.37,1098.85 1740.45,1092.39 1742.53,1085.87 1744.62,1079.29 1746.7,1072.65 1748.78,1065.96 1750.87,1059.22 1752.95,1052.43 1755.03,1045.59 1757.11,1038.71 1759.2,1031.8 1761.28,1024.84 1763.36,1017.85 1765.45,1010.84 1767.53,1003.79 1769.61,996.718 1771.69,989.624 1773.78,982.512 1775.86,975.383 1777.94,968.242 1780.03,961.09 1782.11,953.931 1784.19,946.768 1786.27,939.603 1788.36,932.44 1790.44,925.282 1792.52,918.132 1794.61,910.991 1796.69,903.865 1798.77,896.754 1800.85,889.663 1802.94,882.594 1805.02,875.55 1807.1,868.534 1809.19,861.548 1811.27,854.596 1813.35,847.68 1815.43,840.803 1817.52,833.967 1819.6,827.176 1821.68,820.431 1823.77,813.736 1825.85,807.092 1827.93,800.504 1830.01,793.972 1832.1,787.5 1834.18,781.089 1836.26,774.743 1838.35,768.463 1840.43,762.252 1842.51,756.112 1844.59,750.045 1846.68,744.053 1848.76,738.139 1850.84,732.303 1852.93,726.549 1855.01,720.878 1857.09,715.292 1859.18,709.793 1861.26,704.382 1863.34,699.061 1865.42,693.831 1867.51,688.695 1869.59,683.654 1871.67,678.708 1873.76,673.86 1875.84,669.11 1877.92,664.46 1880,659.911 1882.09,655.464 1884.17,651.12 1886.25,646.879 1888.34,642.744 1890.42,638.714 1892.5,634.789 1894.58,630.972 1896.67,627.262 1898.75,623.66 1900.83,620.166 1902.92,616.781 1905,613.504 1907.08,610.337 1909.16,607.279 1911.25,604.329 1913.33,601.489 1915.41,598.758 1917.5,596.136 1919.58,593.622 1921.66,591.216 1923.74,588.919 1925.83,586.728 1927.91,584.645 1929.99,582.667 1932.08,580.795 1934.16,579.028 1936.24,577.364 1938.32,575.804 1940.41,574.345 1942.49,572.987 1944.57,571.729 1946.66,570.57 1948.74,569.508 1950.82,568.542 1952.9,567.67 1954.99,566.892 1957.07,566.205 1959.15,565.608 1961.24,565.1 1963.32,564.678 1965.4,564.341 1967.48,564.088 1969.57,563.915 1971.65,563.822 1973.73,563.806 1975.82,563.865 1977.9,563.997 1979.98,564.2 1982.07,564.472 1984.15,564.811 1986.23,565.213 1988.31,565.678 1990.4,566.201 1992.48,566.782 1994.56,567.418 1996.65,568.105 1998.73,568.841 2000.81,569.625 2002.89,570.453 2004.98,571.322 2007.06,572.23 2009.14,573.174 2011.23,574.152 2013.31,575.16 2015.39,576.196 2017.47,577.257 2019.56,578.34 2021.64,579.442 2023.72,580.56 2025.81,581.692 2027.89,582.835 2029.97,583.985 2032.05,585.139 2034.14,586.296 2036.22,587.451 2038.3,588.601 2040.39,589.745 2042.47,590.878 2044.55,591.998 2046.63,593.102 2048.72,594.187 2050.8,595.25 2052.88,596.288 2054.97,597.298 2057.05,598.278 2059.13,599.223 2061.21,600.132 2063.3,601.001 2065.38,601.828 2067.46,602.609 2069.55,603.343 2071.63,604.026 2073.71,604.655 2075.79,605.227 2077.88,605.741 2079.96,606.192 2082.04,606.58 2084.13,606.9 2086.21,607.151 2088.29,607.329 2090.38,607.433 2092.46,607.46 2094.54,607.407 2096.62,607.273 2098.71,607.054 2100.79,606.748 2102.87,606.354 2104.96,605.869 2107.04,605.291 2109.12,604.618 2111.2,603.847 2113.29,602.978 2115.37,602.007 2117.45,600.933 2119.54,599.755 2121.62,598.47 2123.7,597.077 2125.78,595.575 2127.87,593.961 2129.95,592.234 2132.03,590.393 2134.12,588.436 2136.2,586.363 2138.28,584.171 2140.36,581.86 2142.45,579.429 2144.53,576.876 2146.61,574.201 2148.7,571.403 2150.78,568.481 2152.86,565.434 2154.94,562.261 2157.03,558.962 2159.11,555.537 2161.19,551.985 2163.28,548.306 2165.36,544.499 2167.44,540.564 2169.52,536.501 2171.61,532.31 2173.69,527.99 2175.77,523.543 2177.86,518.968 2179.94,514.265 2182.02,509.434 2184.1,504.477 2186.19,499.393 2188.27,494.183 2190.35,488.847 2192.44,483.387 2194.52,477.803 2196.6,472.095 2198.69,466.265 2200.77,460.313 2202.85,454.241 2204.93,448.05 2207.02,441.74 2209.1,435.314 2211.18,428.772 2213.27,422.115 2215.35,415.346 2217.43,408.465 2219.51,401.474 2221.6,394.375 2223.68,387.169 2225.76,379.859 2227.85,372.445 2229.93,364.931 2232.01,357.317 2234.09,349.605 2236.18,341.799 2238.26,333.899 2240.34,325.908 2242.43,317.828 2244.51,309.662 2246.59,301.411 2248.67,293.078 2250.76,284.665 2252.84,276.175 2254.92,267.61 2257.01,258.973 2259.09,250.266 2261.17,241.492 2263.25,232.653 2265.34,223.753 2267.42,214.793 2269.5,205.776 2271.59,196.706 2273.67,187.585 2275.75,178.415 2277.83,169.2 2279.92,159.942 2282,150.645 2284.08,141.31 2286.17,131.942 2288.25,122.543 2290.33,113.115 "/>
</svg>
